<?xml version="1.0" encoding="UTF-8" standalone="no"?>
<!DOCTYPE svg PUBLIC "-//W3C//DTD SVG 1.1//EN"
 "http://www.w3.org/Graphics/SVG/1.1/DTD/svg11.dtd">
<!-- Generated by graphviz version 2.28.0 (20121221.0058)
 -->
<!-- Title: _anonymous_0 Pages: 1 -->
<svg width="448pt" height="158pt"
 viewBox="0.00 0.00 448.00 158.00" xmlns="http://www.w3.org/2000/svg" xmlns:xlink="http://www.w3.org/1999/xlink">
<g id="graph1" class="graph" transform="scale(1 1) rotate(0) translate(4 154)">
<title>_anonymous_0</title>
<polygon fill="white" stroke="white" points="-4,5 -4,-154 445,-154 445,5 -4,5"/>
<!-- S -->
<g id="node1" class="node"><title>S</title>
<ellipse fill="none" stroke="black" cx="18" cy="-77" rx="18" ry="18"/>
<text text-anchor="middle" x="18" y="-73.3" font-family="Times,serif" font-size="14.00">S</text>
</g>
<!-- P -->
<g id="node3" class="node"><title>P</title>
<ellipse fill="none" stroke="black" cx="98" cy="-102" rx="18" ry="18"/>
<text text-anchor="middle" x="98" y="-98.3" font-family="Times,serif" font-size="14.00">P</text>
</g>
<!-- S&#45;&#45;P -->
<g id="edge2" class="edge"><title>S&#45;&#45;P</title>
<path fill="none" stroke="black" d="M35.5418,-82.3019C48.8681,-86.5731 67.5014,-92.5453 80.7495,-96.7915"/>
<text text-anchor="middle" x="58" y="-93.8" font-family="Times,serif" font-size="14.00">2</text>
</g>
<!-- U -->
<g id="node5" class="node"><title>U</title>
<ellipse fill="none" stroke="black" cx="98" cy="-48" rx="18" ry="18"/>
<text text-anchor="middle" x="98" y="-44.3" font-family="Times,serif" font-size="14.00">U</text>
</g>
<!-- S&#45;&#45;U -->
<g id="edge4" class="edge"><title>S&#45;&#45;U</title>
<path fill="none" stroke="black" d="M35.1617,-70.9912C48.5484,-66.0141 67.478,-58.9761 80.8591,-54.0011"/>
<text text-anchor="middle" x="58" y="-66.8" font-family="Times,serif" font-size="14.00">3</text>
</g>
<!-- X -->
<g id="node7" class="node"><title>X</title>
<ellipse fill="none" stroke="black" cx="178" cy="-75" rx="18" ry="18"/>
<text text-anchor="middle" x="178" y="-71.3" font-family="Times,serif" font-size="14.00">X</text>
</g>
<!-- P&#45;&#45;X -->
<g id="edge6" class="edge"><title>P&#45;&#45;X</title>
<path fill="none" stroke="black" d="M115.162,-96.4056C128.548,-91.7717 147.478,-85.2191 160.859,-80.5873"/>
<text text-anchor="middle" x="138" y="-92.8" font-family="Times,serif" font-size="14.00">4</text>
</g>
<!-- Q -->
<g id="node9" class="node"><title>Q</title>
<ellipse fill="none" stroke="black" cx="258" cy="-132" rx="18" ry="18"/>
<text text-anchor="middle" x="258" y="-128.3" font-family="Times,serif" font-size="14.00">Q</text>
</g>
<!-- P&#45;&#45;Q -->
<g id="edge8" class="edge"><title>P&#45;&#45;Q</title>
<path fill="none" stroke="black" d="M115.755,-105.233C138.14,-109.546 179.044,-117.405 214,-124 222.656,-125.633 232.296,-127.429 240.251,-128.904"/>
<text text-anchor="middle" x="178" y="-123.8" font-family="Times,serif" font-size="14.00">5</text>
</g>
<!-- U&#45;&#45;X -->
<g id="edge10" class="edge"><title>U&#45;&#45;X</title>
<path fill="none" stroke="black" d="M115.162,-53.5944C128.548,-58.2283 147.478,-64.7809 160.859,-69.4127"/>
<text text-anchor="middle" x="138" y="-65.8" font-family="Times,serif" font-size="14.00">1</text>
</g>
<!-- V -->
<g id="node12" class="node"><title>V</title>
<ellipse fill="none" stroke="black" cx="258" cy="-18" rx="18" ry="18"/>
<text text-anchor="middle" x="258" y="-14.3" font-family="Times,serif" font-size="14.00">V</text>
</g>
<!-- U&#45;&#45;V -->
<g id="edge12" class="edge"><title>U&#45;&#45;V</title>
<path fill="none" stroke="black" d="M115.482,-43.5312C127.707,-40.3184 144.814,-36.0352 160,-33 187.906,-27.4225 220.682,-22.7386 240.099,-20.156"/>
<text text-anchor="middle" x="178" y="-36.8" font-family="Times,serif" font-size="14.00">3</text>
</g>
<!-- X&#45;&#45;Q -->
<g id="edge14" class="edge"><title>X&#45;&#45;Q</title>
<path fill="none" stroke="black" d="M192.945,-85.1905C207.055,-95.5015 228.752,-111.357 242.913,-121.706"/>
<text text-anchor="middle" x="218" y="-108.8" font-family="Times,serif" font-size="14.00">7</text>
</g>
<!-- X&#45;&#45;V -->
<g id="edge18" class="edge"><title>X&#45;&#45;V</title>
<path fill="none" stroke="black" d="M192.945,-64.8095C207.055,-54.4985 228.752,-38.6426 242.913,-28.2944"/>
<text text-anchor="middle" x="218" y="-51.8" font-family="Times,serif" font-size="14.00">8</text>
</g>
<!-- Y -->
<g id="node15" class="node"><title>Y</title>
<ellipse fill="none" stroke="black" cx="258" cy="-75" rx="18" ry="18"/>
<text text-anchor="middle" x="258" y="-71.3" font-family="Times,serif" font-size="14.00">Y</text>
</g>
<!-- X&#45;&#45;Y -->
<g id="edge16" class="edge"><title>X&#45;&#45;Y</title>
<path fill="none" stroke="black" d="M196.311,-75C209.237,-75 226.823,-75 239.738,-75"/>
<text text-anchor="middle" x="218" y="-78.8" font-family="Times,serif" font-size="14.00">6</text>
</g>
<!-- R -->
<g id="node20" class="node"><title>R</title>
<ellipse fill="none" stroke="black" cx="340" cy="-102" rx="18" ry="18"/>
<text text-anchor="middle" x="340" y="-98.3" font-family="Times,serif" font-size="14.00">R</text>
</g>
<!-- Q&#45;&#45;R -->
<g id="edge22" class="edge"><title>Q&#45;&#45;R</title>
<path fill="none" stroke="black" d="M275.189,-125.929C289.069,-120.724 308.962,-113.264 322.835,-108.062"/>
<text text-anchor="middle" x="298" y="-121.8" font-family="Times,serif" font-size="14.00">2</text>
</g>
<!-- W -->
<g id="node18" class="node"><title>W</title>
<ellipse fill="none" stroke="black" cx="340" cy="-47" rx="19.4965" ry="19.4965"/>
<text text-anchor="middle" x="340" y="-43.3" font-family="Times,serif" font-size="14.00">W</text>
</g>
<!-- V&#45;&#45;W -->
<g id="edge20" class="edge"><title>V&#45;&#45;W</title>
<path fill="none" stroke="black" d="M275.189,-23.8686C288.612,-28.7344 307.66,-35.6392 321.447,-40.6369"/>
<text text-anchor="middle" x="298" y="-37.8" font-family="Times,serif" font-size="14.00">4</text>
</g>
<!-- Y&#45;&#45;W -->
<g id="edge26" class="edge"><title>Y&#45;&#45;W</title>
<path fill="none" stroke="black" d="M275.189,-69.3338C288.612,-64.6357 307.66,-57.969 321.447,-53.1436"/>
<text text-anchor="middle" x="298" y="-65.8" font-family="Times,serif" font-size="14.00">3</text>
</g>
<!-- Y&#45;&#45;R -->
<g id="edge24" class="edge"><title>Y&#45;&#45;R</title>
<path fill="none" stroke="black" d="M275.189,-80.4639C289.069,-85.1482 308.962,-91.8622 322.835,-96.5443"/>
<text text-anchor="middle" x="298" y="-92.8" font-family="Times,serif" font-size="14.00">1</text>
</g>
<!-- T -->
<g id="node24" class="node"><title>T</title>
<ellipse fill="none" stroke="black" cx="422" cy="-76" rx="18" ry="18"/>
<text text-anchor="middle" x="422" y="-72.3" font-family="Times,serif" font-size="14.00">T</text>
</g>
<!-- W&#45;&#45;T -->
<g id="edge30" class="edge"><title>W&#45;&#45;T</title>
<path fill="none" stroke="black" d="M358.755,-53.436C372.564,-58.4421 391.561,-65.3284 404.925,-70.1728"/>
<text text-anchor="middle" x="382" y="-66.8" font-family="Times,serif" font-size="14.00">5</text>
</g>
<!-- R&#45;&#45;T -->
<g id="edge28" class="edge"><title>R&#45;&#45;T</title>
<path fill="none" stroke="black" d="M357.576,-96.6128C371.398,-92.1208 390.98,-85.7564 404.719,-81.2914"/>
<text text-anchor="middle" x="382" y="-92.8" font-family="Times,serif" font-size="14.00">6</text>
</g>
</g>
</svg>
